<svg xmlns="http://www.w3.org/2000/svg" width="274" height="59"><defs><linearGradient id="A" x1="27.057%" x2="98.429%" y1="49.8%" y2="50.423%"><stop offset="10.54%" stop-color="#006eb6"/><stop offset="52.85%" stop-color="#09c"/><stop offset="100%" stop-color="#3da1cd"/></linearGradient><linearGradient id="B" x1="37.881%" x2="65.728%" y1="69.146%" y2="24.157%"><stop offset="0%" stop-color="#4c4948"/><stop offset="100%" stop-color="#727171"/></linearGradient><linearGradient id="C" x1="13.036%" x2="73.409%" y1="99.727%" y2="13.324%"><stop offset="0%" stop-color="#005aa0"/><stop offset="46.85%" stop-color="#09c"/><stop offset="100%" stop-color="#3da1cd"/></linearGradient><linearGradient id="D" x1="114.349%" x2="11.014%" y1="28.977%" y2="61.332%"><stop offset="0%" stop-color="#d7e7af"/><stop offset="95.16%" stop-color="#09c" stop-opacity="0"/></linearGradient><linearGradient id="E" x1="49.456%" x2="50.835%" y1="19.185%" y2="55.708%"><stop offset="10.54%" stop-color="#006eb6"/><stop offset="100%" stop-color="#3da1cd" stop-opacity="0"/></linearGradient><linearGradient id="F" x1="59.848%" x2="48.849%" y1="18.937%" y2="53.623%"><stop offset="10.54%" stop-color="#006eb6"/><stop offset="100%" stop-color="#3da1cd" stop-opacity="0"/></linearGradient><linearGradient id="G" x1="44.92%" x2="59.439%" y1="26.185%" y2="100.661%"><stop offset="0%" stop-color="#005aa0"/><stop offset="100%" stop-color="#005aa0" stop-opacity="0"/></linearGradient><linearGradient id="H" x1="35.751%" x2="141.618%" y1="58.373%" y2="-2.249%"><stop offset="0%" stop-color="#005aa0"/><stop offset="73.89%" stop-color="#09c"/><stop offset="100%" stop-color="#3da1cd"/></linearGradient><linearGradient id="I" x1="123.626%" x2="12.592%" y1="34.996%" y2="55.828%"><stop offset="0%" stop-color="#005aa0"/><stop offset="100%" stop-color="#005aa0" stop-opacity="0"/></linearGradient><linearGradient id="J" x1="51.38%" x2="49.821%" y1="-8.516%" y2="76.05%"><stop offset="0%" stop-color="#fcd475" stop-opacity="0"/><stop offset="100%" stop-color="#e7a100"/></linearGradient><linearGradient id="K" x1="72.997%" x2="3.352%" y1="47.029%" y2="55.572%"><stop offset="14.64%" stop-color="#d34c3a"/><stop offset="49.96%" stop-color="#ec6d4e"/><stop offset="100%" stop-color="#ef8465"/></linearGradient><linearGradient id="L" x1="77.319%" x2="34.269%" y1="97.947%" y2="16.252%"><stop offset="0%" stop-color="#d34c3a"/><stop offset="28.74%" stop-color="#ec6d4e"/><stop offset="100%" stop-color="#ef8465"/></linearGradient><linearGradient id="M" x1="-14.2%" x2="73.545%" y1="36.681%" y2="53.866%"><stop offset=".25%" stop-color="#fabf13"/><stop offset="100%" stop-color="#ef8465" stop-opacity="0"/></linearGradient><linearGradient id="N" x1="50.204%" x2="49.914%" y1="65.162%" y2="28.219%"><stop offset="0%" stop-color="#db4f3c" stop-opacity="0"/><stop offset="100%" stop-color="#d34c3a"/></linearGradient><linearGradient id="O" x1="54.408%" x2="40.068%" y1="64.384%" y2="17.605%"><stop offset="0%" stop-color="#db4f3c" stop-opacity="0"/><stop offset="100%" stop-color="#d34c3a"/></linearGradient><linearGradient id="P" x1="51.458%" x2="45.171%" y1="78.685%" y2="-3.461%"><stop offset="0%" stop-color="#db4f3c" stop-opacity="0"/><stop offset="100%" stop-color="#d34c3a"/></linearGradient><linearGradient id="Q" x1="53.801%" x2="45.707%" y1="96.293%" y2="15.891%"><stop offset="0%" stop-color="#db4f3c" stop-opacity="0"/><stop offset="100%" stop-color="#d34c3a"/></linearGradient><linearGradient id="R" x1="17.073%" x2="77.391%" y1="1.276%" y2="90.167%"><stop offset="48.36%" stop-color="#ec6d4e"/><stop offset="100%" stop-color="#ef8465"/></linearGradient><linearGradient id="S" x1="55.903%" x2="49.431%" y1="-5.404%" y2="72.509%"><stop offset="0%" stop-color="#fcd475" stop-opacity="0"/><stop offset="100%" stop-color="#e7a100"/></linearGradient><linearGradient id="T" x1="15.976%" x2="110.778%" y1="83.901%" y2="-21.084%"><stop offset="0%" stop-color="#d34c3a"/><stop offset="100%" stop-color="#fac03d"/></linearGradient></defs><path fill="url(#A)" d="M95.598 41.797a18.08 18.08 0 0 0-17.517 3.647c1.442.998 3.017 1.775 4.704 2.318h.001c.5.165 1.025.296 1.54.414 1.957.137 3.952-.393 5.605-1.614-.25.343-.52.678-.83.988-.407.4-.848.763-1.3 1.07a18.06 18.06 0 0 0 12.513-4.504c-1.445-.998-3.02-1.775-4.707-2.32z"/><path fill="url(#B)" d="M104.124 46.042c.15-.01.2-.205.055-.27l-6.742-3.265a2.1 2.1 0 0 0-2.805.983l-3.257 6.767c-.262.543-1.022.8-1.666.92a.3.3 0 0 0-.073.563l6.67 3.23a2.1 2.1 0 0 0 2.805-.983l3.257-6.767a2.09 2.09 0 0 1 1.756-1.178z"/><path fill="#fff" d="M99.613 48.242c.523-1.286-.094-2.754-1.378-3.277a2.51 2.51 0 0 0-3.274 1.38c-.173.427-.22.874-.158 1.3H94.8l.4 4.05c.013.1.083.2.193.255s.23.022.315-.047l3.112-2.618v-.001c.34-.264.62-.615.794-1.042zm-2.8.215a1.26 1.26 0 0 1-.69-1.639c.262-.642.995-.952 1.637-.7a1.26 1.26 0 0 1 .69 1.639c-.263.643-.995.952-1.637.7z"/><path fill="url(#C)" d="M64.946 44.986c1.168-3.628 3.467-6.886 6.583-8.94-4.204-2.82-6.506-8.005-5.41-13.27.707-3.396 2.7-6.194 5.358-7.996L73.9 7.876c.106-.3.5-.37.7-.122l3.48 4.295a14.58 14.58 0 0 1 2.401.29l15.344 3.204c.763.16 1.498.382 2.204.65l4.87-2.526a.41.41 0 0 1 .598.395l-.545 7.286a12.79 12.79 0 0 1 1.719 9.474 12.81 12.81 0 0 1-14.194 10.094 4.52 4.52 0 0 1-.264 1.005c-2.666 6.812-9.3 11.636-17.038 11.636-4.773 0-9.117-1.836-12.377-4.677 1.796-.7 3.73-2.562 4.16-3.894z"/><path fill="url(#D)" d="M104.663 30.827a12.79 12.79 0 0 1-5.035 7.764c-1.138 1.004-4.912 2.95-9.16 2.328 0 0-11.756.684-18.942-4.875-4.198-2.815-6.504-8-5.407-13.27.712-3.395 2.7-6.2 5.356-8l2.42-6.905c.103-.3.496-.372.692-.124l3.485 4.296a14.56 14.56 0 0 1 2.398.29l.734.155 14.6 3.043a15.14 15.14 0 0 1 2.203.652l4.87-2.525a.41.41 0 0 1 .6.393l-.55 7.287c.776 1.21 1.334 2.546 1.665 3.964.413 1.76.454 3.634.06 5.517z"/><path fill="url(#E)" d="M103.246 13.66c-.108-.05-.236-.056-.357.007l-4.87 2.526c-.705-.268-1.44-.5-2.203-.65L80.472 12.34c-.804-.168-1.606-.26-2.4-.29L74.6 7.755c-.125-.153-.318-.173-.476-.103l1.556 8.417 9.043 11.554 14.62-5.24 3.912-8.723z"/><path fill="url(#F)" d="M102.544 29.502c.9-4.066-1.216-8.25-5.005-9.95-.552-.247-1.133-.44-1.73-.57-4.39-.962-8.74 1.548-10.2 5.687.492-3.82-1.58-7.605-5.135-9.2-.553-.248-1.134-.44-1.73-.57a8.84 8.84 0 0 0-10.508 6.74 8.87 8.87 0 0 0 5.005 9.951c.552.248 1.133.44 1.73.57 4.39.962 8.74-1.548 10.2-5.686a8.88 8.88 0 0 0 5.135 9.2 8.9 8.9 0 0 0 1.73.569c4.752 1.042 9.466-1.98 10.508-6.74z"/><path fill="url(#G)" d="M78.77 38.787l-.003-.015c-.145-.832-1.017-1.346-1.81-1.063a16.7 16.7 0 0 0-11.02 14.369c2.22.934 4.657 1.48 7.227 1.48l.886-.033c3.755-3.715 5.7-9.138 4.722-14.738z"/><path fill="url(#H)" d="M77.68 37.52a1.33 1.33 0 0 1 1.328 1.517c-1.238 8.352-8.688 14.224-16.95 13.63a15.88 15.88 0 0 1 .148-1.493c1.164-7.84 7.816-13.498 15.474-13.655z"/><g fill="#fff"><path d="M73.13 40.16c.62-.228 1.245-.4 1.88-.55 1.052-.23 1.956.767 1.602 1.784a14.18 14.18 0 0 1-1.468 3.001 6.47 6.47 0 0 0-.18-1.122c-.083-.334-.198-.652-.327-.96.127 1.36-.178 2.684-.81 3.824a14.26 14.26 0 0 1-2.235 2.042c.138-.42.243-.853.297-1.308.04-.342.046-.68.036-1.014-.433 1.56-1.416 2.858-2.697 3.722l-1.146.485h-.002a14.01 14.01 0 0 1-4.034.845c.917-4.92 4.357-9 9.082-10.75z"/><ellipse cx="76.467" cy="23.263" rx="7.894" ry="7.903"/></g><ellipse cx="73.315" cy="24.494" fill="#4c4948" rx="3.904" ry="3.908"/><ellipse cx="94.401" cy="27.622" fill="#fff" rx="7.894" ry="7.903"/><ellipse cx="91.826" cy="28.992" fill="#4c4948" rx="3.904" ry="3.908"/><path fill="url(#I)" d="M85.526 35.332c-.86 1.487-3.118 3.023-6.464 2.646-.236-.027-.348-.3-.2-.488 1.488-1.878.812-3.883 1.977-5.476.548-.75 2.237-1.95 3.95-.727 1.43 1.022 1.387 2.92.737 4.045z"/><path fill="#fdd23e" d="M86.035 33.99c-.254 1.386-1.584 3.195-4.288 3.812-.17.038-.3-.132-.253-.295.656-1.87-.427-3.23.035-4.783.216-.725 1.185-2.1 2.834-1.64 1.377.393 1.863 1.863 1.672 2.906z"/><path fill="url(#J)" d="M84.85 31.286c1.003.563 1.352 1.797 1.184 2.705-.256 1.395-1.603 3.22-4.343 3.824-.075.017-.116-.084-.053-.128 2.474-1.733 3.622-5.008 3.21-6.4z"/><path fill="#4c4948" d="M75.132 57.995l-2.307-3.203v-2.39c0-.268-.217-.486-.486-.486h-.01c-.268 0-.486.217-.486.486v2.276l-2.387 3.315c-.16.222-.104.535.124.688.218.146.51.093.664-.12l1.6-2.22v1.926c0 .268.217.487.486.487h.01c.268 0 .486-.218.486-.487v-1.815l1.52 2.1c.153.212.447.265.664.12.228-.152.285-.465.124-.687z"/><path fill="url(#K)" d="M31.214 42.594a21.78 21.78 0 0 1 21.493-1.674c-1.334 1.64-2.895 3.07-4.665 4.266h-.001l-1.644.998c-2.22.816-4.706.874-7.028.016.405.314.83.61 1.293.864a10.07 10.07 0 0 0 1.875.798 21.75 21.75 0 0 1-15.99-1.003c1.336-1.638 2.897-3.068 4.667-4.265z"/><path fill="url(#L)" d="M69.03 48.403l1.38-2.238c-.482-.556-.843-1.122-1-1.64-1.4-4.322-4.128-8.203-7.84-10.647 5.008-3.362 7.75-9.534 6.443-15.806a15.22 15.22 0 0 0-6.382-9.524L58.75.326c-.125-.358-.595-.44-.834-.145l-4.144 5.116a17.37 17.37 0 0 0-2.86.345L32.634 9.457c-.9.19-1.783.454-2.625.774l-5.8-3a.49.49 0 0 0-.712.472l.648 8.678a15.23 15.23 0 0 0-2.046 11.283 15.26 15.26 0 0 0 16.905 12.023c.058.4.16.802.313 1.198C42.492 48.988 50.38 54.733 59.6 54.733c4.29 0 8.3-1.244 11.662-3.39l-2.244-2.94z"/><path fill="url(#M)" d="M68.003 18.07c-.843-4.045-3.215-7.377-6.382-9.523L58.748.325c-.125-.358-.595-.44-.834-.145L53.77 5.296a17.37 17.37 0 0 0-2.86.345L32.634 9.457c-.9.19-1.783.454-2.625.774l-5.8-3a.49.49 0 0 0-.712.472l.648 8.678a15.23 15.23 0 0 0-2.046 11.283 15.26 15.26 0 0 0 16.905 12.023c7.196-.932 18.522-2.924 22.555-5.8 5.008-3.36 7.75-9.534 6.443-15.806z"/><path fill="url(#N)" d="M44.633 20.16l11.798-10.1L58.38.01a.48.48 0 0 0-.467.171L53.77 5.296a17.37 17.37 0 0 0-2.86.345L32.634 9.457c-.9.19-1.783.454-2.625.774l-5.8-3c-.173-.1-.364-.062-.503.035l5.354 8.063 15.572 4.842z"/><path fill="url(#O)" d="M64.058 17.354c-.947-4.542-4.992-7.837-9.62-7.837-.674 0-1.352.07-2.017.21-4.904 1.023-8.186 5.56-7.788 10.435-1.238-4.1-5.066-7.014-9.41-7.014-.674 0-1.352.07-2.017.21a9.86 9.86 0 0 0-7.622 11.649c.948 4.542 4.992 7.837 9.62 7.837.674 0 1.352-.07 2.017-.21C42.127 31.6 45.41 27.073 45 22.197c1.238 4.112 5.067 7.015 9.4 7.015.674 0 1.352-.07 2.017-.21a9.86 9.86 0 0 0 7.621-11.649z"/><ellipse cx="34.502" cy="22.598" fill="#fff" rx="8.329" ry="8.338"/><ellipse cx="32.752" cy="20.348" fill="#4c4948" rx="3.465" ry="3.469"/><path fill="url(#P)" d="M69.272 52.46C68.92 44.702 64.1 38.08 56.8 35.125c-.94-.38-2.033-.16-2.252.832l-.004.02c-1.552 7.053.808 14.052 5.63 18.738a21.61 21.61 0 0 0 9.1-2.254z"/><path fill="#4c4948" d="M57.423 57.995l-2.307-3.203v-2.39c0-.268-.217-.486-.486-.486h-.01c-.27 0-.487.217-.487.486v2.276l-2.386 3.315c-.16.222-.105.535.124.688.217.146.5.093.664-.12l1.598-2.22v1.926c0 .268.217.487.486.487h.01c.268 0 .486-.218.486-.487v-1.815l1.52 2.1c.152.212.446.265.663.12.23-.152.285-.465.124-.687zm8.855 0l-2.307-3.203v-2.39c0-.268-.217-.486-.486-.486h-.01c-.268 0-.486.217-.486.486v2.276l-2.386 3.315c-.16.222-.105.535.124.688.217.146.5.093.663-.12l1.6-2.22v1.926c0 .268.217.487.486.487h.01c.268 0 .486-.218.486-.487v-1.815l1.52 2.1c.152.212.446.265.663.12.227-.152.283-.465.123-.687z"/><path fill="url(#Q)" d="M43.044 32.158c.608 2.032 2.886 4.52 7.013 5.022.292.036.505-.263.38-.53-1.255-2.683.13-4.898-.818-7.144-.445-1.056-2.132-2.98-4.537-2-2 .82-2.498 3.115-2.038 4.65z"/><ellipse cx="54.615" cy="18.399" fill="#fff" rx="8.329" ry="8.338"/><ellipse cx="54.069" cy="20.793" fill="#4c4948" rx="3.465" ry="3.469"/><path fill="url(#R)" d="M56.013 34.665a1.58 1.58 0 0 0-1.744 1.649v.018A19.06 19.06 0 0 0 72.851 54.37a19.04 19.04 0 0 0-.01-1.787c-.504-9.424-7.764-16.877-16.828-17.918z"/><path fill="#fff" d="M61.114 38.303a16.94 16.94 0 0 0-2.168-.86c-1.222-.39-2.406.7-2.098 1.937.322 1.3.798 2.548 1.406 3.724.075-.438.186-.877.34-1.3a8.03 8.03 0 0 1 .495-1.104c-.302 1.6-.088 3.203.532 4.626.71.97 1.52 1.866 2.424 2.67-.118-.512-.192-1.04-.207-1.584-.01-.41.02-.813.07-1.208.34 1.9 1.36 3.547 2.784 4.715l1.306.704c1.498.717 3.07 1.2 4.7 1.452-.54-5.938-4.163-11.173-9.573-13.762z"/><path fill="#fdd23e" d="M42.832 30.576c-.005 1.854 1.278 4.517 4.626 5.968.2.1.434-.094.4-.32-.398-2.576 1.332-4.075 1.108-6.195-.104-1-1.023-3.016-3.27-2.805-1.876.175-2.86 1.96-2.863 3.352z"/><path fill="url(#S)" d="M45.018 27.367c-1.434.484-2.182 1.995-2.186 3.2-.005 1.866 1.295 4.552 4.694 5.996.093.04.172-.08.1-.152-2.78-2.84-3.475-7.352-2.608-9.054z"/><path fill="url(#T)" d="M1.924 24.75c5.3-11.248 12.98-4.525 19.412-10.36.65 13.875-9.54 9.967-10.533 17.75l-8.88-7.4z"/><path fill="#4c4948" d="M35.71 49.182L2.52 24.477a1.58 1.58 0 0 0-2.367.59 1.58 1.58 0 0 0 .564 1.998L35.36 49.687c.334.22.673-.267.352-.505z"/><path d="M141.875 43.147l8.24 2.94-1.823 3.104c-2.365-1.116-7.287-2.968-10.578-4.14l1.224-1.905h-.816c-1.17 3.16-4.08 4.983-11.994 5.826-.244-.98-1.114-2.506-1.767-3.322 5.357-.435 7.888-1.17 9.138-2.505h-8.595v-3.212h9.8c.056-.382.082-.762.1-1.2h4.133c-.027.4-.08.817-.108 1.2h11.068v3.212h-8.023zm-11.26-4.057h-3.67V24.934h8.24c.192-.626.355-1.252.463-1.77l4.35.327c-.217.518-.434 1.008-.652 1.443h8.62V36.26c0 1.36-.217 2.096-1.006 2.614-.788.5-1.74.544-2.773.544-.164-.653-.545-1.524-.9-2.26l-1.142 1.47c-.76-.57-2.04-1.36-3.345-2.095v1.47h-2.9V36.56c-1.007.926-2.176 1.77-3.32 2.287-.434-.626-1.25-1.605-1.85-2.096 1.414-.5 2.9-1.4 3.998-2.34h-3.346v-2.233h1.44c-.108-.326-.246-.68-.353-.952l1.74-.463c-.735 0-1.47 0-2.177-.027a8.31 8.31 0 0 0-.597-1.934c3.6-.054 7.913-.27 10.47-.68l1.496 1.96c-1.333.218-2.938.382-4.596.5v1.607h.788c.218-.545.462-1.226.57-1.66l2.34.626c-.272.38-.5.734-.68 1.034h1.686V34.4h-3.506c1.414.708 2.9 1.552 3.78 2.15h.108c.218 0 .272-.082.272-.3v-8.277h-13.543V39.1zm5.277-8.385c-.435.028-.87.028-1.278.028a8.75 8.75 0 0 1 .544 1.442h.735v-1.47zm43.566-1.578h-9.056v14.537c0 2.56-.572 3.73-2.257 4.4-1.687.71-4.053.817-6.854.817-.27-1.334-1.197-3.457-1.93-4.68 1.986.107 4.57.135 5.33.135.68-.028.952-.2.952-.76V29.126h-10.69v-4.138h24.504l.001 4.14zm29.345 0h-9.056v14.537c0 2.56-.572 3.73-2.258 4.4-1.686.71-4.052.817-6.853.817-.272-1.334-1.197-3.457-1.93-4.68 1.986.107 4.57.135 5.33.135.68-.028.952-.2.952-.76V29.126h-10.69v-4.138h24.504l.001 4.14zm15.93 7.187v9.5c0 1.334-.19 2.124-1.034 2.614-.815.462-1.85.517-3.208.517-.11-.843-.517-2.096-.9-2.885.626.027 1.36.027 1.605.027s.326-.08.326-.327v-1.823l-2.066 1.36-.652-1.496c-.22 1.932-.654 3.893-1.605 5.31-.572-.545-2.013-1.498-2.746-1.852 1.278-1.987 1.36-4.764 1.36-6.915v-4.03h-1.333V31.85h1.006v-7.896h9.328v7.896h1.115v2.967h14.006v2.75h-14.088v-1.252h-1.115zm-1.713-1.88h-5.765v.736h5.765v-.736zm-4.515-2.586h.653v-4.4h2.474v-.737h-3.127v5.147zm.462 8.55c0 .68-.027 1.39-.055 2.15.762-.3 1.66-.68 2.6-1.115v-.98l-1.005 1.143a22.27 22.27 0 0 0-1.551-1.389v.2zm2.557-2.723h-2.556V38.9l.816-.844c.57.38 1.224.817 1.74 1.226v-1.608zm.108-5.826V29.56h-.57v2.288h.57zm18.52 14.02v2.804h-14.576V45.87h2.83a38.61 38.61 0 0 0-.598-1.66l1.523-.463h-2.584V38.22h12.212v5.527h-2.9l2.012.545-1.087 1.578h3.18zm-.624-11.76h-13.352v-9.04h3.126v-1.88h3.02v1.88h.708v-1.88h3.045v1.88h3.454v9.04zm-10.498-5.693h1.006v-.843h-1.006v.843zm0 3.186h1.006v-.87h-1.006v.87zm1.115 9.856h5.167v-.926h-5.167v.926zm.79 2.287c.326.708.624 1.497.816 2.123h1.902c.3-.68.6-1.47.8-2.123h-3.508zm2.284-15.33v-.843h-.87v.845h.87v-.002zm-.87 2.315v.87h.87v-.87h-.87zm4.188-3.158h-1.006v.845h1.006v-.845zm0 3.158h-1.006v.87h1.006v-.87zm10.267 15.736c.5-1.55.87-4 1.034-5.825l1.93.653c-.2 1.825-.488 4.356-.896 5.88l-2.068-.71zm16.835-5.58c-.136.708-.327 1.388-.517 2.042.87.57 1.795 1.226 2.31 1.77l-1.93 2.558c-.354-.382-.925-.897-1.55-1.36-.598 1.226-1.305 2.313-2.094 3.158-.5-.518-1.577-1.47-2.34-1.987a2.47 2.47 0 0 1-.299.708c-.462.653-.95.897-1.604 1.007-.572.136-1.414.163-2.312.136-.055-.87-.354-2.096-.76-2.86.598.083 1.087.083 1.387.083s.5-.055.68-.327c.136-.218.22-.734.3-1.77l-.897.326c-.136-.952-.517-2.395-.87-3.512l1.304-.41c.2.573.382 1.226.544 1.824l.083-2.37h-6.908V24.12h9.654v3.185h-2.447v1.362h2.067v.2c2.773-1.497 5.357-3.84 6.77-6.098l3.5 1.225c-.164.272-.327.546-.518.8 1.632 1.197 3.78 2.37 5.766 3.022-.517.926-1.142 2.696-1.36 3.676-.844-.41-1.714-.897-2.556-1.415v2.015h-7.97V30.6c-.516.327-1.06.653-1.603.953a18.63 18.63 0 0 0-2.04-2.26v2.232h-2.067v1.17h2.176v2.86h-2.176v1.17h2.774s0 .817-.028 1.17c-.108 4.602-.217 7.215-.462 8.658 1.36-1.552 2.257-3.84 2.72-6.262l3.262.595zm-12.238.218c.108 1.606.163 3.648.136 5.036l-1.605.164c.055-1.4.028-3.458-.055-5.065l1.524-.135zm-.218-13.804v1.362h1.25v-1.362h-1.25zm1.25 4.22h-1.25v1.17h1.25v-1.17zm-1.25 5.2h1.25v-1.17h-1.25v1.17zm1.822 4.164c.272 1.4.517 3.213.6 4.4l-1.525.273c-.054-1.226-.298-3.048-.543-4.465l1.47-.218zm5.63-7.786h6.12V40h-6.12V33.1zm2.475 4.465h1.006v-2.07h-1.006v2.07zm6.58-8.44c-.87-.626-1.713-1.28-2.474-1.932-.653.68-1.36 1.334-2.122 1.932h4.596zm2.75 11.707a31.87 31.87 0 0 1-.736 3.268c1.088.68 2.284 1.497 2.965 2.096l-2.257 2.696c-.435-.463-1.17-1.062-1.958-1.634-.354.68-.735 1.307-1.17 1.852-.598-.598-2.04-1.66-2.828-2.15 1.385-1.578 2.175-4.11 2.528-6.725l3.456.598zm-5.06-7.732h6.337V40h-6.337V33.1zm2.502 4.465h1.17v-2.07h-1.17v2.07z" fill="#fff"/></svg>
